HIERARCHY
ROOT hip
{
  OFFSET 85.6329 78.6648 148.73
  CHANNELS 6 Xposition Yposition Zposition Zrotation Xrotation Yrotation
  JOINT abdomen
  {
    OFFSET 0 20.6881 -0.73152
    CHANNELS 3 Zrotation Xrotation Yrotation
    JOINT chest
    {
      OFFSET 0 11.7043 -0.48768
      CHANNELS 3 Zrotation Xrotation Yrotation
      JOINT neck
      {
        OFFSET 0 22.1894 -2.19456
        CHANNELS 3 Zrotation Xrotation Yrotation
        JOINT head
        {
          OFFSET -0.24384 7.07133 1.2192
          CHANNELS 3 Zrotation Xrotation Yrotation
          JOINT leftEye
          {
            OFFSET 4.14528 8.04674 8.04672
            CHANNELS 3 Zrotation Xrotation Yrotation
            End Site
            {
              OFFSET 1 0 0
            }
          }
          JOINT rightEye
          {
            OFFSET -3.6576 8.04674 8.04672
            CHANNELS 3 Zrotation Xrotation Yrotation
            End Site
            {
              OFFSET 1 0 0
            }
          }
        }
      }
      JOINT rCollar
      {
        OFFSET -2.68224 19.2634 -4.8768
        CHANNELS 3 Zrotation Xrotation Yrotation
        JOINT rShldr
        {
          OFFSET -8.77824 -1.95073 1.46304
          CHANNELS 3 Zrotation Xrotation Yrotation
          JOINT rForeArm
          {
            OFFSET -28.1742 -1.7115 0.48768
            CHANNELS 3 Zrotation Xrotation Yrotation
            JOINT rHand
            {
              OFFSET -22.5879 0.773209 7.07136
              CHANNELS 3 Zrotation Xrotation Yrotation
              JOINT rThumb1
              {
                OFFSET -1.2192 -0.487915 3.41376
                CHANNELS 3 Zrotation Xrotation Yrotation
                JOINT rThumb2
                {
                  OFFSET -3.37035 -0.52449 3.41376
                  CHANNELS 3 Zrotation Xrotation Yrotation
                  End Site
                  {
                    OFFSET -1.78271 -1.18214 1.43049
                  }
                }
              }
              JOINT rIndex1
              {
                OFFSET -7.75947 0.938293 5.60832
                CHANNELS 3 Zrotation Xrotation Yrotation
                JOINT rIndex2
                {
                  OFFSET -2.54057 -0.884171 1.56538
                  CHANNELS 3 Zrotation Xrotation Yrotation
                  End Site
                  {
                    OFFSET -1.62519 -0.234802 1.16502
                  }
                }
              }
              JOINT rMid1
              {
                OFFSET -8.24714 1.18213 3.41376
                CHANNELS 3 Zrotation Xrotation Yrotation
                JOINT rMid2
                {
                  OFFSET -3.10165 -0.590103 1.0647
                  CHANNELS 3 Zrotation Xrotation Yrotation
                  End Site
                  {
                    OFFSET -2.48547 -0.328903 0.83742
                  }
                }
              }
              JOINT rRing1
              {
                OFFSET -8.82822 0.546677 1.51678
                CHANNELS 3 Zrotation Xrotation Yrotation
                JOINT rRing2
                {
                  OFFSET -2.60934 -0.819778 -0.0198488
                  CHANNELS 3 Zrotation Xrotation Yrotation
                  End Site
                  {
                    OFFSET -2.33842 -0.294052 0.168128
                  }
                }
              }
              JOINT rPinky1
              {
                OFFSET -8.27202 -0.0477905 -0.4584
                CHANNELS 3 Zrotation Xrotation Yrotation
                JOINT rPinky2
                {
                  OFFSET -1.82734 -0.647385 -0.700984
                  CHANNELS 3 Zrotation Xrotation Yrotation
                  End Site
                  {
                    OFFSET -1.69225 -0.51767 -0.607171
                  }
                }
              }
            }
          }
        }
      }
      JOINT lCollar
      {
        OFFSET 2.68224 19.2634 -4.8768
        CHANNELS 3 Zrotation Xrotation Yrotation
        JOINT lShldr
        {
          OFFSET 8.77824 -1.95073 1.46304
          CHANNELS 3 Zrotation Xrotation Yrotation
          JOINT lForeArm
          {
            OFFSET 28.1742 -1.7115 0.48768
            CHANNELS 3 Zrotation Xrotation Yrotation
            JOINT lHand
            {
              OFFSET 22.5879 0.773209 7.07136
              CHANNELS 3 Zrotation Xrotation Yrotation
              JOINT lThumb1
              {
                OFFSET 1.2192 -0.487915 3.41376
                CHANNELS 3 Zrotation Xrotation Yrotation
                JOINT lThumb2
                {
                  OFFSET 3.37035 -0.52449 3.41376
                  CHANNELS 3 Zrotation Xrotation Yrotation
                  End Site
                  {
                    OFFSET 1.78271 -1.18214 1.43049
                  }
                }
              }
              JOINT lIndex1
              {
                OFFSET 7.75947 0.938293 5.60832
                CHANNELS 3 Zrotation Xrotation Yrotation
                JOINT lIndex2
                {
                  OFFSET 2.54057 -0.884171 1.56538
                  CHANNELS 3 Zrotation Xrotation Yrotation
                  End Site
                  {
                    OFFSET 1.62519 -0.234802 1.16502
                  }
                }
              }
              JOINT lMid1
              {
                OFFSET 8.24714 1.18213 3.41376
                CHANNELS 3 Zrotation Xrotation Yrotation
                JOINT lMid2
                {
                  OFFSET 3.10165 -0.590103 1.0647
                  CHANNELS 3 Zrotation Xrotation Yrotation
                  End Site
                  {
                    OFFSET 2.48547 -0.328903 0.83742
                  }
                }
              }
              JOINT lRing1
              {
                OFFSET 8.82822 0.546677 1.51678
                CHANNELS 3 Zrotation Xrotation Yrotation
                JOINT lRing2
                {
                  OFFSET 2.60934 -0.819778 -0.0198488
                  CHANNELS 3 Zrotation Xrotation Yrotation
                  End Site
                  {
                    OFFSET 2.33842 -0.294052 0.168128
                  }
                }
              }
              JOINT lPinky1
              {
                OFFSET 8.27202 -0.0477905 -0.4584
                CHANNELS 3 Zrotation Xrotation Yrotation
                JOINT lPinky2
                {
                  OFFSET 1.82734 -0.647385 -0.700984
                  CHANNELS 3 Zrotation Xrotation Yrotation
                  End Site
                  {
                    OFFSET 1.69225 -0.51767 -0.607171
                  }
                }
              }
            }
          }
        }
      }
    }
  }
  JOINT rButtock
  {
    OFFSET -8.77824 4.35084 1.2192
    CHANNELS 3 Zrotation Xrotation Yrotation
    JOINT rThigh
    {
      OFFSET 0 -1.70687 -2.19456
      CHANNELS 3 Zrotation Xrotation Yrotation
      JOINT rShin
      {
        OFFSET 0 -36.8199 0.73152
        CHANNELS 3 Zrotation Xrotation Yrotation
        JOINT rFoot
        {
          OFFSET 0.73152 -45.1104 -5.12064
          CHANNELS 3 Zrotation Xrotation Yrotation
          End Site
          {
            OFFSET -1.1221 -3.69964 12.103
          }
        }
      }
    }
  }
  JOINT lButtock
  {
    OFFSET 8.77824 4.35084 1.2192
    CHANNELS 3 Zrotation Xrotation Yrotation
    JOINT lThigh
    {
      OFFSET 0 -1.70687 -2.19456
      CHANNELS 3 Zrotation Xrotation Yrotation
      JOINT lShin
      {
        OFFSET 0 -36.8199 0.73152
        CHANNELS 3 Zrotation Xrotation Yrotation
        JOINT lFoot
        {
          OFFSET -0.73152 -45.1104 -5.12064
          CHANNELS 3 Zrotation Xrotation Yrotation
          End Site
          {
            OFFSET 1.1221 -3.69964 12.103
          }
        }
      }
    }
  }
}
MOTION
Frames:	6
Frame Time:	0.00833333
87.725 77.4322 27.3201 0.963932 2.73484 14.3487 -1.56905 8.58086 -0.11848 0.873614 -0.568062 0.395868 10.225 -4.44943 8.1454 -19.186 -7.7298 11.4176 -0 0 0 -0 0 0 -9.23343e-014 1.04748e-013 1.77233e-013 83.3987 13.744 -19.7235 -11.8177 -5.31918 21.2617 -0.020371 4.17287 0.587439 8.1777e-010 6.43162e-011 1.54921e-010 1.4128e-009 1.10044e-010 2.62896e-010 8.17771e-010 6.43198e-011 1.54909e-010 7.73091 5.47488 0.417314 8.17764e-010 6.43234e-011 1.54915e-010 2.90554 0.965183 0.102902 8.17773e-010 6.43211e-011 1.54919e-010 10.2786 0.731801 0.0259123 8.17766e-010 6.43219e-011 1.54925e-010 2.22167 -0.733487 -0.20892 -9.2385e-014 1.04746e-013 1.77213e-013 -80.2281 23.4733 8.24605 25.476 -22.155 -54.6778 0.265606 -14.5185 2.0857 3.26496e-010 -9.66213e-011 6.33078e-011 5.6163e-010 -1.7466e-010 1.1596e-010 3.26486e-010 -9.66183e-011 6.33188e-011 -7.73091 5.47488 -0.417314 3.26497e-010 -9.66145e-011 6.33115e-011 -2.90554 0.965183 -0.102902 3.26492e-010 -9.66144e-011 6.33079e-011 -10.2786 0.731801 -0.0259123 3.26502e-010 -9.66201e-011 6.33019e-011 -2.22167 -0.733487 0.20892 -2.03217e-016 0 -3.88251e-019 -2.53105 -35.275 -6.81328 -0.633773 44.755 -0.45139 3.67915 12.3308 -19.305 2.03217e-016 0 3.88251e-019 8.72447 -5.44676 -5.93583 165.772 85.8534 -167.289 1.82877 -7.58611 -28.3883 
87.6048 77.0252 27.7161 0.88124 2.93972 13.8211 -1.15367 9.11136 0.0111258 0.680986 -0.697603 0.424294 10.4309 -4.27578 8.26647 -19.6256 -8.7375 11.435 -0 0 0 -0 0 0 -9.97707e-014 1.08141e-013 2.01965e-013 83.2721 14.5199 -18.7729 -11.8761 -5.36213 21.3702 -0.0260977 4.60663 0.648832 6.95006e-010 -1.79192e-011 2.93921e-010 1.20076e-009 -3.24989e-011 5.03529e-010 6.95006e-010 -1.79149e-011 2.93909e-010 7.73091 5.47488 0.417314 6.95e-010 -1.79119e-011 2.93915e-010 2.90554 0.965183 0.102902 6.95009e-010 -1.79128e-011 2.93919e-010 10.2786 0.731801 0.0259123 6.95002e-010 -1.79117e-011 2.93925e-010 2.22167 -0.733487 -0.20892 -9.98157e-014 1.08136e-013 2.01916e-013 -80.329 22.9165 7.45062 25.1334 -21.3852 -53.426 0.27188 -14.6815 2.11021 2.20972e-010 -4.90713e-010 3.55475e-010 3.7574e-010 -8.61587e-010 6.20511e-010 2.20963e-010 -4.9071e-010 3.55484e-010 -7.73091 5.47488 -0.417314 2.20973e-010 -4.90708e-010 3.55478e-010 -2.90554 0.965183 -0.102902 2.20967e-010 -4.90707e-010 3.55474e-010 -10.2786 0.731801 -0.0259123 2.20979e-010 -4.90712e-010 3.55468e-010 -2.22167 -0.733487 0.20892 -2.03217e-016 0 -3.88251e-019 -2.06136 -36.1474 -6.31766 -0.686081 46.6112 -0.331572 3.69368 12.2109 -19.3084 2.03217e-016 0 3.88251e-019 8.84049 -5.29839 -6.04962 168.348 84.8763 -169.893 2.19157 -7.24579 -28.1751 
87.5099 76.5707 27.9868 1.03331 3.31464 13.3608 -1.1209 9.44553 0.0620334 0.663468 -0.817402 0.420754 10.5788 -3.97326 8.39402 -20.01 -9.66646 11.5122 -0 0 0 -0 0 0 -5.88519e-014 5.92641e-014 1.06888e-013 83.1362 15.5082 -17.9071 -12.0729 -5.50036 21.7509 -0.0274685 4.69055 0.660734 2.47373e-010 -1.74733e-010 8.55238e-011 4.26711e-010 -3.03669e-010 1.45023e-010 2.47377e-010 -1.7473e-010 8.55116e-011 7.73091 5.47488 0.417314 2.47371e-010 -1.74728e-010 8.55199e-011 2.90554 0.965183 0.102902 2.47379e-010 -1.74727e-010 8.55214e-011 10.2786 0.731801 0.0259123 2.4737e-010 -1.74726e-010 8.55281e-011 2.22167 -0.733487 -0.20892 -5.88896e-014 5.92608e-014 1.06772e-013 -80.5362 22.5191 6.88048 24.7778 -20.6281 -52.17 0.276676 -14.7989 2.12793 8.43421e-011 -3.71039e-010 3.99192e-010 1.39972e-010 -6.51765e-010 6.92704e-010 8.43339e-011 -3.71035e-010 3.99202e-010 -7.73091 5.47488 -0.417314 8.43423e-011 -3.71035e-010 3.99196e-010 -2.90554 0.965183 -0.102902 8.43356e-011 -3.71034e-010 3.99192e-010 -10.2786 0.731801 -0.0259123 8.43478e-011 -3.71038e-010 3.99187e-010 -2.22167 -0.733487 0.20892 -2.03217e-016 0 -3.88251e-019 -2.01218 -37.1331 -5.92771 -0.737102 48.4144 -0.203142 3.69964 12.0724 -19.3099 2.03217e-016 0 3.88251e-019 8.55937 -5.37181 -6.21161 170.03 83.9306 -171.598 2.52941 -6.86997 -27.7009 
87.493 76.2056 28.3302 1.34368 3.81086 12.9124 -1.34112 9.64185 0.0654721 0.758916 -0.924877 0.397276 10.7173 -3.54146 8.52928 -20.4088 -10.5895 11.624 -0 0 0 -0 0 0 1.34567e-014 -2.50471e-014 -6.82732e-014 82.9632 16.652 -17.0609 -12.359 -5.70076 22.3138 -0.0260749 4.57457 0.64432 -4.2646e-010 -3.98397e-010 -3.2822e-010 -7.38545e-010 -6.90241e-010 -5.67463e-010 -4.26451e-010 -3.98395e-010 -3.28231e-010 7.73091 5.47488 0.417314 -4.26457e-010 -3.98395e-010 -3.2822e-010 2.90554 0.965183 0.102902 -4.26451e-010 -3.98393e-010 -3.28223e-010 10.2786 0.731801 0.0259123 -4.26463e-010 -3.98392e-010 -3.28214e-010 2.22167 -0.733487 -0.20892 1.34267e-014 -2.50468e-014 -6.84875e-014 -80.7976 22.2416 6.44756 24.3905 -19.8422 -50.8763 0.280147 -14.8792 2.14012 -8.44116e-011 4.24917e-011 3.27359e-010 -1.493e-010 7.08099e-011 5.63145e-010 -8.44188e-011 4.24945e-011 3.27368e-010 -7.73091 5.47488 -0.417314 -8.44114e-011 4.24926e-011 3.27364e-010 -2.90554 0.965183 -0.102902 -8.44188e-011 4.24929e-011 3.27359e-010 -10.2786 0.731801 -0.0259123 -8.44072e-011 4.24918e-011 3.27354e-010 -2.22167 -0.733487 0.20892 -2.03217e-016 0 -3.88251e-019 -2.21719 -38.2141 -5.53754 -0.789774 50.1783 -0.0648297 3.70192 11.9196 -19.3107 2.03217e-016 0 3.88251e-019 7.99542 -5.58412 -6.39003 171.201 83.0308 -172.787 2.84151 -6.46544 -27.0261 
87.4908 75.9917 28.8112 1.68799 4.32879 12.5087 -1.63094 9.75847 0.0219596 0.901076 -1.02563 0.35796 10.8313 -3.11797 8.66592 -20.7425 -11.3317 11.7791 -0 0 0 -0 0 0 8.35198e-014 -1.07967e-013 -2.28729e-013 82.7723 17.82 -16.2565 -12.7195 -5.96143 23.0217 -0.0235884 4.36874 0.615199 -1.07231e-009 -5.82707e-010 -7.00942e-010 -1.85532e-009 -1.0087e-009 -1.20899e-009 -1.0723e-009 -5.82707e-010 -7.00951e-010 7.73091 5.47488 0.417314 -1.07231e-009 -5.82707e-010 -7.00937e-010 2.90554 0.965183 0.102902 -1.0723e-009 -5.82705e-010 -7.00944e-010 10.2786 0.731801 0.0259123 -1.07232e-009 -5.82704e-010 -7.00933e-010 2.22167 -0.733487 -0.20892 8.34924e-014 -1.07963e-013 -2.29034e-013 -81.0344 22.146 6.0682 23.9682 -19.0328 -49.5222 0.278985 -14.8489 2.13555 -2.48319e-010 4.1282e-010 2.45073e-010 -4.30124e-010 7.18567e-010 4.15807e-010 -2.48326e-010 4.12821e-010 2.45082e-010 -7.73091 5.47488 -0.417314 -2.48319e-010 4.12818e-010 2.45079e-010 -2.90554 0.965183 -0.102902 -2.48327e-010 4.12818e-010 2.45075e-010 -10.2786 0.731801 -0.0259123 -2.48316e-010 4.12819e-010 2.45069e-010 -2.22167 -0.733487 0.20892 -2.03217e-016 0 -3.88251e-019 -2.45153 -39.1602 -5.13612 -0.840274 51.6971 0.0722299 3.69688 11.7657 -19.31 2.03217e-016 0 3.88251e-019 7.36178 -5.86094 -6.55586 172.076 82.1594 -173.676 3.11776 -6.05309 -26.2341 
87.4907 75.8549 29.2536 1.93779 4.76796 12.1821 -1.80732 9.85356 -0.0679339 1.02373 -1.12527 0.306912 10.907 -2.84015 8.79719 -20.9334 -11.7182 11.9838 -0 0 0 -0 0 0 1.17702e-013 -1.52669e-013 -2.7969e-013 82.5924 18.8787 -15.5161 -13.1391 -6.2803 23.8374 -0.0215093 4.18312 0.588956 -1.436e-009 -6.21458e-010 -7.86271e-010 -2.48394e-009 -1.07552e-009 -1.35463e-009 -1.43599e-009 -6.21459e-010 -7.86281e-010 7.73091 5.47488 0.417314 -1.43599e-009 -6.21461e-010 -7.86265e-010 2.90554 0.965183 0.102902 -1.43599e-009 -6.21457e-010 -7.86274e-010 10.2786 0.731801 0.0259123 -1.43601e-009 -6.21457e-010 -7.86262e-010 2.22167 -0.733487 -0.20892 1.17667e-013 -1.52664e-013 -2.80038e-013 -81.1679 22.2934 5.65896 23.5066 -18.2028 -48.0844 0.270074 -14.634 2.10307 -3.70411e-010 4.02887e-010 2.57434e-010 -6.40545e-010 7.03933e-010 4.34664e-010 -3.70417e-010 4.02888e-010 2.57444e-010 -7.73091 5.47488 -0.417314 -3.70411e-010 4.02884e-010 2.5744e-010 -2.90554 0.965183 -0.102902 -3.70419e-010 4.02884e-010 2.57436e-010 -10.2786 0.731801 -0.0259123 -3.7041e-010 4.02886e-010 2.57431e-010 -2.22167 -0.733487 0.20892 -2.03217e-016 0 -3.88251e-019 -2.49788 -39.741 -4.71583 -0.879557 52.7649 0.192732 3.68086 11.6235 -19.3071 2.03217e-016 0 3.88251e-019 6.87304 -6.12807 -6.67987 172.765 81.298 -174.378 3.35169 -5.65626 -25.4076 
